<svg width="50" height="50" viewBox="0 0 50 50" fill="none" xmlns="http://www.w3.org/2000/svg">
<g id="mdi:user">
<path id="Vector" d="M25 8.3335C27.2102 8.3335 29.3298 9.21147 30.8926 10.7743C32.4554 12.3371 33.3334 14.4567 33.3334 16.6668C33.3334 18.877 32.4554 20.9966 30.8926 22.5594C29.3298 24.1222 27.2102 25.0002 25 25.0002C22.7899 25.0002 20.6703 24.1222 19.1075 22.5594C17.5447 20.9966 16.6667 18.877 16.6667 16.6668C16.6667 14.4567 17.5447 12.3371 19.1075 10.7743C20.6703 9.21147 22.7899 8.3335 25 8.3335ZM25 29.1668C34.2084 29.1668 41.6667 32.896 41.6667 37.5002V41.6668H8.33337V37.5002C8.33337 32.896 15.7917 29.1668 25 29.1668Z" fill="black"/>
</g>
</svg>
